<svg width="190" height="51" viewBox="0 0 190 51" fill="none" xmlns="http://www.w3.org/2000/svg">
<path d="M50.9451 28.2028C50.9451 22.6989 54.9722 18.7375 60.5052 18.7375C66.0382 18.7375 70.0654 22.6989 70.0654 28.2028C70.0654 33.7067 66.0382 37.6681 60.5052 37.6681C55.0073 37.6681 50.9451 33.7067 50.9451 28.2028ZM66.0732 28.2028C66.0732 24.7673 63.867 22.1731 60.5052 22.1731C57.1434 22.1731 54.9722 24.7673 54.9722 28.2028C54.9722 31.6033 57.1434 34.2326 60.5052 34.2326C63.867 34.1975 66.0732 31.6033 66.0732 28.2028Z" fill="white"/>
<path d="M71.5709 34.7561L73.6721 31.7763C74.9678 33.1085 76.9638 34.2303 79.4852 34.2303C81.6213 34.2303 82.6719 33.2487 82.6719 32.197C82.6719 28.9718 72.1312 31.1804 72.1312 24.2742C72.1312 21.2243 74.7576 18.7002 79.065 18.7002C81.9715 18.7002 84.3878 19.5766 86.2088 21.2593L84.0376 24.0989C82.5668 22.7317 80.5708 22.1007 78.7148 22.1007C77.0339 22.1007 76.1234 22.8369 76.1234 23.9236C76.1234 26.8333 86.629 24.8702 86.629 31.7062C86.629 35.0716 84.2477 37.5957 79.3101 37.5957C75.8082 37.6658 73.2868 36.4739 71.5709 34.7561Z" fill="white"/>
<path d="M105.189 37.3498V24.519L100.041 37.3498H98.3253L93.1776 24.519V37.3498H89.2905V19.0151H94.7534L99.2008 30.093L103.648 19.0151H109.146V37.3147H105.189V37.3498Z" fill="white"/>
<path d="M111.843 28.2009C111.843 22.697 115.87 18.7356 121.403 18.7356C126.936 18.7356 130.963 22.697 130.963 28.2009C130.963 33.7048 126.936 37.6662 121.403 37.6662C115.87 37.6662 111.843 33.7048 111.843 28.2009ZM126.971 28.2009C126.971 24.7653 124.765 22.1711 121.403 22.1711C118.041 22.1711 115.87 24.7653 115.87 28.2009C115.87 31.6014 118.041 34.2306 121.403 34.2306C124.765 34.1956 126.971 31.6014 126.971 28.2009Z" fill="white"/>
<path d="M132.469 34.7561L134.57 31.7763C135.866 33.1085 137.862 34.2303 140.383 34.2303C142.519 34.2303 143.57 33.2487 143.57 32.197C143.57 28.9718 133.029 31.1804 133.029 24.2742C133.029 21.2243 135.656 18.7002 139.963 18.7002C142.869 18.7002 145.286 19.5766 147.107 21.2593L144.936 24.0989C143.465 22.7317 141.469 22.1007 139.613 22.1007C137.932 22.1007 137.021 22.8369 137.021 23.9236C137.021 26.8333 147.527 24.8702 147.527 31.7062C147.527 35.0716 145.146 37.5957 140.208 37.5957C136.706 37.6658 134.185 36.4739 132.469 34.7561Z" fill="white"/>
<path d="M150.153 37.3498V19.0151H154.076V37.3147H150.153V37.3498Z" fill="white"/>
<path d="M156.457 34.7561L158.558 31.7763C159.854 33.1085 161.85 34.2303 164.371 34.2303C166.507 34.2303 167.558 33.2487 167.558 32.197C167.558 28.9718 157.017 31.1804 157.017 24.2742C157.017 21.2243 159.643 18.7002 163.951 18.7002C166.857 18.7002 169.274 19.5766 171.095 21.2593L168.923 24.0989C167.453 22.7317 165.457 22.1007 163.601 22.1007C161.92 22.1007 161.009 22.8369 161.009 23.9236C161.009 26.8333 171.515 24.8702 171.515 31.7062C171.515 35.0716 169.134 37.5957 164.196 37.5957C160.659 37.6658 158.138 36.4739 156.457 34.7561Z" fill="white"/>
<path d="M44.0435 12.3125C43.6287 10.7131 42.2951 9.11371 39.8947 7.33323C37.9684 5.91489 35.9236 5.1001 34.2937 5.1001C33.9677 5.1001 33.6714 5.13027 33.375 5.19063C32.6342 5.34152 31.9822 5.88471 31.5673 6.6995C31.0635 7.66518 30.945 8.96282 31.271 9.74744C31.3895 9.98886 31.5377 10.2906 31.7155 10.5622C30.1449 11.5279 29.2558 11.7995 29.1373 11.8297C33.2269 13.2178 36.6349 16.1149 38.7686 19.8871L38.7982 19.5249C38.8871 18.5291 39.1834 17.3823 39.5983 16.2054C40.0132 16.3261 40.4281 16.3865 40.843 16.3865C41.9395 16.3865 42.8878 15.9338 43.4805 15.119C44.0732 14.3042 44.3103 13.2178 44.0435 12.3125Z" fill="#5E12A0"/>
<path d="M39.7761 15.3303C42.4729 16.0848 43.5693 13.9724 43.2137 12.554C42.8285 11.1357 41.5838 9.68715 39.3908 8.05756C37.1979 6.42798 34.9753 5.76407 33.5528 6.06585C32.1303 6.36762 31.7154 8.57058 32.0711 9.41555C32.2192 9.7475 32.5452 10.2303 32.9897 10.7735C32.4267 11.1658 31.8933 11.4676 31.4487 11.7392C34.1751 12.9765 36.5459 14.9079 38.324 17.3221C38.5314 16.5073 38.8278 15.783 39.0945 15.1493C39.3019 15.1795 39.539 15.2398 39.7761 15.3303Z" fill="url(#paint0_radial_109_1249)"/>
<path d="M24.3363 44.9042C33.4854 44.9042 40.9022 37.3516 40.9022 28.035C40.9022 18.7184 33.4854 11.1658 24.3363 11.1658C15.1873 11.1658 7.77051 18.7184 7.77051 28.035C7.77051 37.3516 15.1873 44.9042 24.3363 44.9042Z" fill="url(#paint1_radial_109_1249)"/>
<path opacity="0.6" d="M41.8505 11.1657C39.5983 8.75148 37.7017 8.11775 35.4198 7.60474C33.6417 7.18225 34.1159 6.15622 36.2792 6.36746C35.242 6.00533 34.264 5.9148 33.5528 6.06568C32.1303 6.36746 31.7155 8.57042 32.0711 9.41539C32.2192 9.74734 32.5452 10.2302 32.9897 10.7734C32.1896 11.3166 31.508 11.7089 30.9449 12.0107C31.2117 12.1314 31.5376 12.2822 31.9229 12.4935C32.9305 13.0367 34.027 13.942 34.027 13.942C32.3674 12.4935 32.723 11.8296 35.0049 10.2C35.7161 9.68699 37.0201 9.74734 38.2351 10.3811C39.4501 11.0148 40.8726 12.6142 40.8726 12.6142L39.5094 15.2698C39.5983 15.3 39.6872 15.3302 39.7761 15.3604C40.6355 15.6018 41.3171 15.5414 41.8505 15.3302C42.4729 14.9379 44.1028 13.6101 41.8505 11.1657Z" fill="#A98698"/>
<path d="M35.3901 9.05332C35.9828 9.29474 36.7533 9.71723 37.7016 10.351C38.8278 11.1054 39.8057 11.9504 40.428 12.6143C39.3908 14.0024 38.7092 15.9036 38.2943 17.2314C38.5018 17.5332 38.7389 17.835 38.9463 18.1368C39.1537 17.3823 39.5094 16.2657 39.9835 15.1492C40.1021 15.1794 40.2502 15.1794 40.3984 15.1794C40.754 15.1794 41.1689 15.119 41.4949 14.8474C41.732 14.6663 41.9987 14.3344 41.969 13.7308C41.969 13.1575 41.5245 12.4332 40.6059 11.5581C39.9539 10.9243 39.0648 10.2302 38.1758 9.59652C35.6272 7.8764 33.8491 7.39356 33.049 8.20835C32.5156 8.75155 32.5748 9.41546 32.7526 9.8983C31.8043 10.532 31.0042 10.9847 30.4708 11.2865C30.8264 11.4072 31.1524 11.5581 31.508 11.7089C32.4563 11.1959 33.8195 10.3208 35.3901 9.05332ZM40.9911 13.3687C41.08 13.5196 41.1096 13.6705 41.1096 13.761C41.1096 14.0326 41.0207 14.1231 40.9615 14.1835C40.8429 14.274 40.6058 14.3344 40.3984 14.3344C40.5762 13.9723 40.7837 13.6705 40.9911 13.3687ZM33.6713 8.87226C33.7602 8.78173 33.9973 8.72137 34.3826 8.78173C34.0862 9.02315 33.7899 9.23439 33.4935 9.44563C33.4639 9.23439 33.4935 9.02315 33.6713 8.87226Z" fill="#5E12A0"/>
<path d="M24.3363 10.1699C14.6457 10.1699 6.79248 18.167 6.79248 28.035C6.79248 37.9031 14.6457 45.9001 24.3363 45.9001C34.0268 45.9001 41.88 37.9031 41.88 28.035C41.88 18.167 33.9972 10.1699 24.3363 10.1699ZM24.3363 44.9042C15.1791 44.9042 7.77043 37.3599 7.77043 28.035C7.77043 18.7102 15.1791 11.1658 24.3363 11.1658C33.4934 11.1658 40.9021 18.7102 40.9021 28.035C40.9021 37.3599 33.4638 44.9042 24.3363 44.9042Z" fill="#5E12A0"/>
<path opacity="0.6" d="M24.3363 44.9042C33.4854 44.9042 40.9022 37.3516 40.9022 28.035C40.9022 18.7184 33.4854 11.1658 24.3363 11.1658C15.1873 11.1658 7.77051 18.7184 7.77051 28.035C7.77051 37.3516 15.1873 44.9042 24.3363 44.9042Z" fill="url(#paint2_linear_109_1249)"/>
<path opacity="0.6" d="M24.2176 42.8521C15.179 41.3734 9.04459 32.7125 10.5263 23.5083C11.1783 19.4344 13.1934 15.964 16.0384 13.4592C11.8895 15.9036 8.80751 20.1586 7.97774 25.3492C6.52563 34.5533 12.66 43.2143 21.669 44.693C26.7069 45.5379 31.567 43.9385 35.1528 40.8C31.9819 42.6711 28.1294 43.4858 24.2176 42.8521Z" fill="#A98698"/>
<path opacity="0.6" d="M26.9737 11.4071C22.7952 10.713 18.7353 11.6787 15.4162 13.8213C15.3569 13.8817 15.2977 13.942 15.2977 13.942C16.5719 13.1574 18.4389 12.4633 18.4389 12.4633C13.6381 15.3 12.1564 18.529 12.1564 18.529C14.0234 14.8474 19.5058 12.2521 23.8028 12.071C28.0999 11.89 30.9152 13.1876 34.3528 15.9941C37.7904 18.8308 39.8649 24.6249 39.6574 29.2119C39.4796 33.7988 37.1088 37.5107 37.1088 37.5107C38.7387 35.3681 39.7167 33.7988 40.339 32.1994C40.4576 31.7166 40.5761 31.2338 40.6354 30.7207C42.1171 21.5468 36.0123 12.8858 26.9737 11.4071Z" fill="url(#paint3_linear_109_1249)"/>
<path d="M40.0724 27.884C40.0724 36.726 33.0193 43.9083 24.3364 43.9083C15.6534 43.9083 8.57068 36.726 8.57068 27.884H40.0724Z" fill="url(#paint4_linear_109_1249)"/>
<g opacity="0.6">
<path opacity="0.6" d="M38.8278 27.884C38.8278 36.5148 32.1304 43.5763 23.7141 43.9083C23.9216 43.9083 24.129 43.9083 24.3364 43.9083C33.0194 43.9083 40.0725 36.726 40.0725 27.884H38.8278Z" fill="url(#paint5_linear_109_1249)"/>
</g>
<g opacity="0.7">
<path opacity="0.7" d="M10.7933 27.884H8.57068C8.57068 36.726 15.6238 43.9083 24.3067 43.9083C24.692 43.9083 25.0476 43.9083 25.4032 43.8781C17.2537 43.2746 10.7933 36.3337 10.7933 27.884Z" fill="url(#paint6_linear_109_1249)"/>
</g>
<path d="M40.0428 28.0349C40.0428 26.1941 36.9015 25.1379 32.723 24.7758C29.7003 24.5343 26.6479 24.8361 23.151 25.9225C20.1282 26.8278 17.4018 26.6769 15.4163 26.4355C11.0007 25.9225 8.57068 25.8621 8.57068 28.0349C8.57068 31.1734 14.8532 35.0965 24.2771 33.7385C29.0483 33.0444 31.508 31.6261 34.3233 30.6604C37.3757 29.6343 40.0428 29.6645 40.0428 28.0349Z" fill="url(#paint7_linear_109_1249)"/>
<path d="M29.4928 20.4302C30.9658 20.4302 32.1599 19.2143 32.1599 17.7143C32.1599 16.2143 30.9658 14.9983 29.4928 14.9983C28.0198 14.9983 26.8257 16.2143 26.8257 17.7143C26.8257 19.2143 28.0198 20.4302 29.4928 20.4302Z" fill="white"/>
<path d="M33.849 22.4522C34.471 22.4522 34.9751 21.9388 34.9751 21.3054C34.9751 20.6721 34.471 20.1587 33.849 20.1587C33.2271 20.1587 32.7229 20.6721 32.7229 21.3054C32.7229 21.9388 33.2271 22.4522 33.849 22.4522Z" fill="white"/>
<g opacity="0.6">
<path opacity="0.6" d="M37.8793 15.5414C37.8497 15.5414 37.82 15.5414 37.82 15.5414C37.6422 15.5112 37.5237 15.3302 37.5533 15.1189C37.82 13.7308 38.9461 12.4029 39.0054 12.3426C39.1239 12.1917 39.361 12.1917 39.4796 12.3124C39.6277 12.4331 39.6277 12.6745 39.5092 12.7953C39.4796 12.8254 38.4423 14.0627 38.2053 15.2698C38.1756 15.4509 38.0275 15.5414 37.8793 15.5414Z" fill="url(#paint8_linear_109_1249)"/>
</g>
<path opacity="0.2" d="M23.2418 40.6191C23.7 40.6191 24.0715 40.2408 24.0715 39.7742C24.0715 39.3075 23.7 38.9292 23.2418 38.9292C22.7835 38.9292 22.412 39.3075 22.412 39.7742C22.412 40.2408 22.7835 40.6191 23.2418 40.6191Z" fill="white"/>
<g opacity="0.4">
<path opacity="0.6" d="M22.7657 40.3182C22.4398 39.9862 22.4398 39.443 22.7657 39.1111C22.825 39.0507 22.8843 39.0206 22.9435 38.9602C22.825 38.9904 22.7361 39.0507 22.6472 39.1413C22.3212 39.4732 22.3212 40.0164 22.6472 40.3484C22.9139 40.62 23.3288 40.6803 23.6548 40.4993C23.3584 40.62 23.0028 40.5596 22.7657 40.3182Z" fill="url(#paint9_linear_109_1249)"/>
</g>
<path opacity="0.3" d="M23.5361 39.5325C23.6343 39.5325 23.714 39.4515 23.714 39.3515C23.714 39.2515 23.6343 39.1704 23.5361 39.1704C23.4379 39.1704 23.3583 39.2515 23.3583 39.3515C23.3583 39.4515 23.4379 39.5325 23.5361 39.5325Z" fill="white"/>
<path opacity="0.2" d="M27.5685 40.1965C28.0268 40.1965 28.3983 39.8182 28.3983 39.3516C28.3983 38.8849 28.0268 38.5066 27.5685 38.5066C27.1103 38.5066 26.7388 38.8849 26.7388 39.3516C26.7388 39.8182 27.1103 40.1965 27.5685 40.1965Z" fill="white"/>
<g opacity="0.4">
<path opacity="0.6" d="M27.0924 39.8956C26.7664 39.5636 26.7664 39.0204 27.0924 38.6885C27.1517 38.6281 27.2109 38.598 27.2702 38.5376C27.1517 38.5678 27.0628 38.6281 26.9739 38.7187C26.6479 39.0506 26.6479 39.5938 26.9739 39.9258C27.2406 40.1974 27.6555 40.2577 27.9814 40.0767C27.6851 40.1974 27.3295 40.137 27.0924 39.8956Z" fill="url(#paint10_linear_109_1249)"/>
</g>
<path opacity="0.3" d="M27.8628 39.1102C27.961 39.1102 28.0406 39.0291 28.0406 38.9291C28.0406 38.8291 27.961 38.748 27.8628 38.748C27.7646 38.748 27.685 38.8291 27.685 38.9291C27.685 39.0291 27.7646 39.1102 27.8628 39.1102Z" fill="white"/>
<path opacity="0.2" d="M25.4328 42.1581C25.7765 42.1581 26.0551 41.8744 26.0551 41.5244C26.0551 41.1744 25.7765 40.8906 25.4328 40.8906C25.089 40.8906 24.8104 41.1744 24.8104 41.5244C24.8104 41.8744 25.089 42.1581 25.4328 42.1581Z" fill="white"/>
<g opacity="0.4">
<path opacity="0.6" d="M25.0773 41.9175C24.8402 41.6761 24.8402 41.2536 25.0773 41.0122C25.1069 40.982 25.1662 40.9518 25.1958 40.9216C25.1069 40.9518 25.0476 41.0122 24.9884 41.0725C24.7513 41.3139 24.7513 41.7364 24.9884 41.9778C25.1958 42.1891 25.4921 42.2193 25.7589 42.0684C25.5218 42.1589 25.2551 42.0986 25.0773 41.9175Z" fill="url(#paint11_linear_109_1249)"/>
</g>
<path opacity="0.3" d="M25.6403 41.3132C25.7057 41.3132 25.7588 41.2591 25.7588 41.1925C25.7588 41.1258 25.7057 41.0718 25.6403 41.0718C25.5748 41.0718 25.5217 41.1258 25.5217 41.1925C25.5217 41.2591 25.5748 41.3132 25.6403 41.3132Z" fill="white"/>
<path opacity="0.2" d="M29.2558 41.7054C29.5995 41.7054 29.8781 41.4217 29.8781 41.0717C29.8781 40.7217 29.5995 40.438 29.2558 40.438C28.9121 40.438 28.6335 40.7217 28.6335 41.0717C28.6335 41.4217 28.9121 41.7054 29.2558 41.7054Z" fill="white"/>
<g opacity="0.4">
<path opacity="0.6" d="M28.9003 41.4649C28.6632 41.2234 28.6632 40.8009 28.9003 40.5595C28.9299 40.5293 28.9892 40.4992 29.0188 40.469C28.9299 40.4992 28.8706 40.5595 28.8114 40.6199C28.5743 40.8613 28.5743 41.2838 28.8114 41.5252C29.0188 41.7365 29.3151 41.7666 29.5819 41.6157C29.3448 41.7063 29.0781 41.6459 28.9003 41.4649Z" fill="url(#paint12_linear_109_1249)"/>
</g>
<path opacity="0.3" d="M29.4633 40.8606C29.5288 40.8606 29.5819 40.8065 29.5819 40.7398C29.5819 40.6732 29.5288 40.6191 29.4633 40.6191C29.3979 40.6191 29.3448 40.6732 29.3448 40.7398C29.3448 40.8065 29.3979 40.8606 29.4633 40.8606Z" fill="white"/>
<path opacity="0.2" d="M19.7133 40.3174C20.4662 40.3174 21.0765 39.6958 21.0765 38.9292C21.0765 38.1625 20.4662 37.541 19.7133 37.541C18.9604 37.541 18.3501 38.1625 18.3501 38.9292C18.3501 39.6958 18.9604 40.3174 19.7133 40.3174Z" fill="white"/>
<g opacity="0.4">
<path opacity="0.6" d="M18.9435 39.8044C18.4101 39.2612 18.4101 38.386 18.9435 37.8428C19.0324 37.7523 19.1213 37.6919 19.2399 37.6316C19.0621 37.6919 18.9139 37.8127 18.7657 37.9334C18.2323 38.4766 18.2323 39.3517 18.7657 39.8949C19.2103 40.3476 19.8919 40.4381 20.4253 40.1061C19.9215 40.3174 19.3288 40.2269 18.9435 39.8044Z" fill="url(#paint13_linear_109_1249)"/>
</g>
<path opacity="0.3" d="M20.1875 38.5066C20.3512 38.5066 20.4839 38.3715 20.4839 38.2049C20.4839 38.0382 20.3512 37.9031 20.1875 37.9031C20.0239 37.9031 19.8912 38.0382 19.8912 38.2049C19.8912 38.3715 20.0239 38.5066 20.1875 38.5066Z" fill="white"/>
<path opacity="0.2" d="M31.894 36.9072C32.6468 36.9072 33.2572 36.2857 33.2572 35.519C33.2572 34.7524 32.6468 34.1309 31.894 34.1309C31.1411 34.1309 30.5308 34.7524 30.5308 35.519C30.5308 36.2857 31.1411 36.9072 31.894 36.9072Z" fill="white"/>
<g opacity="0.4">
<path opacity="0.6" d="M31.0931 36.3942C30.5597 35.851 30.5597 34.9759 31.0931 34.4327C31.182 34.3421 31.2709 34.2818 31.3895 34.2214C31.2117 34.2818 31.0635 34.4025 30.9153 34.5232C30.3819 35.0664 30.3819 35.9416 30.9153 36.4848C31.3598 36.9374 32.0414 37.028 32.5749 36.696C32.0711 36.9072 31.508 36.8167 31.0931 36.3942Z" fill="url(#paint14_linear_109_1249)"/>
</g>
<path opacity="0.3" d="M32.3674 35.0965C32.5311 35.0965 32.6637 34.9614 32.6637 34.7947C32.6637 34.628 32.5311 34.4929 32.3674 34.4929C32.2037 34.4929 32.071 34.628 32.071 34.7947C32.071 34.9614 32.2037 35.0965 32.3674 35.0965Z" fill="white"/>
<defs>
<radialGradient id="paint0_radial_109_1249" cx="0" cy="0" r="1" gradientUnits="userSpaceOnUse" gradientTransform="translate(42.6732 10.6528) scale(13.2451 13.4877)">
<stop stop-color="#FFEAFF" stop-opacity="0.6"/>
<stop offset="0.6807" stop-color="#A087C9"/>
<stop offset="1" stop-color="#10002F"/>
</radialGradient>
<radialGradient id="paint1_radial_109_1249" cx="0" cy="0" r="1" gradientUnits="userSpaceOnUse" gradientTransform="translate(35.3043 16.405) scale(32.4059 32.9994)">
<stop stop-color="#FFEAFF" stop-opacity="0.6"/>
<stop offset="0.6807" stop-color="#A087C9"/>
<stop offset="1" stop-color="#10002F"/>
</radialGradient>
<linearGradient id="paint2_linear_109_1249" x1="21.679" y1="44.6649" x2="27.1683" y2="11.4086" gradientUnits="userSpaceOnUse">
<stop stop-color="#81FFFF"/>
<stop offset="0.6202" stop-color="white" stop-opacity="0"/>
</linearGradient>
<linearGradient id="paint3_linear_109_1249" x1="36.0109" y1="16.5785" x2="22.0856" y2="29.1256" gradientUnits="userSpaceOnUse">
<stop offset="0.2888" stop-color="white"/>
<stop offset="0.7796" stop-color="white" stop-opacity="0"/>
</linearGradient>
<linearGradient id="paint4_linear_109_1249" x1="8.58401" y1="35.8868" x2="40.0648" y2="35.8868" gradientUnits="userSpaceOnUse">
<stop stop-color="#0002E9"/>
<stop offset="0.9952" stop-color="#FF00C7"/>
</linearGradient>
<linearGradient id="paint5_linear_109_1249" x1="41.5551" y1="29.2902" x2="24.1271" y2="45.4643" gradientUnits="userSpaceOnUse">
<stop offset="0.2888" stop-color="white"/>
<stop offset="0.7796" stop-color="white" stop-opacity="0"/>
</linearGradient>
<linearGradient id="paint6_linear_109_1249" x1="8.58401" y1="35.8868" x2="25.4261" y2="35.8868" gradientUnits="userSpaceOnUse">
<stop stop-color="#000292"/>
<stop offset="0.9952" stop-color="#7D00C7"/>
</linearGradient>
<linearGradient id="paint7_linear_109_1249" x1="8.60514" y1="29.3661" x2="40.0436" y2="29.3661" gradientUnits="userSpaceOnUse">
<stop stop-color="#000292"/>
<stop offset="0.9952" stop-color="#BE00C7"/>
</linearGradient>
<linearGradient id="paint8_linear_109_1249" x1="39.5277" y1="12.1956" x2="37.2082" y2="15.897" gradientUnits="userSpaceOnUse">
<stop offset="0.2888" stop-color="white"/>
<stop offset="0.7796" stop-color="white" stop-opacity="0"/>
</linearGradient>
<linearGradient id="paint9_linear_109_1249" x1="22.4019" y1="39.8009" x2="23.6557" y2="39.8009" gradientUnits="userSpaceOnUse">
<stop offset="0.2888" stop-color="white"/>
<stop offset="0.7796" stop-color="white" stop-opacity="0"/>
</linearGradient>
<linearGradient id="paint10_linear_109_1249" x1="26.7255" y1="39.3725" x2="27.9793" y2="39.3725" gradientUnits="userSpaceOnUse">
<stop offset="0.2888" stop-color="white"/>
<stop offset="0.7796" stop-color="white" stop-opacity="0"/>
</linearGradient>
<linearGradient id="paint11_linear_109_1249" x1="24.8067" y1="41.5324" x2="25.748" y2="41.5324" gradientUnits="userSpaceOnUse">
<stop offset="0.2888" stop-color="white"/>
<stop offset="0.7796" stop-color="white" stop-opacity="0"/>
</linearGradient>
<linearGradient id="paint12_linear_109_1249" x1="28.6169" y1="41.0786" x2="29.5581" y2="41.0786" gradientUnits="userSpaceOnUse">
<stop offset="0.2888" stop-color="white"/>
<stop offset="0.7796" stop-color="white" stop-opacity="0"/>
</linearGradient>
<linearGradient id="paint13_linear_109_1249" x1="18.3521" y1="38.9646" x2="20.3996" y2="38.9646" gradientUnits="userSpaceOnUse">
<stop offset="0.2888" stop-color="white"/>
<stop offset="0.7796" stop-color="white" stop-opacity="0"/>
</linearGradient>
<linearGradient id="paint14_linear_109_1249" x1="30.513" y1="35.5534" x2="32.5606" y2="35.5534" gradientUnits="userSpaceOnUse">
<stop offset="0.2888" stop-color="white"/>
<stop offset="0.7796" stop-color="white" stop-opacity="0"/>
</linearGradient>
</defs>
</svg>
